<svg xmlns="http://www.w3.org/2000/svg" viewBox="0 0 420 140" role="img" aria-labelledby="title desc">
  <title id="title">Impact Tennis Académie</title>
  <desc id="desc">Logo officiel doré avec un médaillon et le texte Impact Tennis Académie</desc>
  <defs>
    <linearGradient id="goldGradient" x1="0%" y1="0%" x2="100%" y2="100%">
      <stop offset="0%" stop-color="#f5d48d" />
      <stop offset="50%" stop-color="#cfaf6e" />
      <stop offset="100%" stop-color="#b98c44" />
    </linearGradient>
    <linearGradient id="innerGlow" x1="0%" y1="0%" x2="0%" y2="100%">
      <stop offset="0%" stop-color="#fff5d6" stop-opacity="0.95" />
      <stop offset="70%" stop-color="#f2c97a" stop-opacity="0.7" />
      <stop offset="100%" stop-color="#be8f45" stop-opacity="0.85" />
    </linearGradient>
  </defs>
  <g fill="none" fill-rule="evenodd">
    <circle cx="70" cy="70" r="62" fill="url(#innerGlow)" stroke="url(#goldGradient)" stroke-width="8" />
    <g transform="translate(47 35)" fill="#b27f2f">
      <rect x="17" y="2" width="10" height="66" rx="5" />
      <rect x="41" y="2" width="10" height="66" rx="5" />
      <path d="M5 68c-1.7 0-3-1.3-3-3V10C2 3.8 6.5 0 15.6 0H28v8H15.6C12.8 8 11 9.7 11 12.4V65c0 1.7-1.3 3-3 3H5Zm74 0c1.7 0 3-1.3 3-3V12.4C82 9.7 80.2 8 77.4 8H65V0h12.4C86.5 0 91 3.8 91 10v55c0 1.7-1.3 3-3 3h-9z" fill="#b27f2f" />
    </g>
    <g transform="translate(150 40)" fill="#0a1224">
      <text font-family="'Playfair Display', Georgia, serif" font-size="52" font-weight="600" letter-spacing="4">
        <tspan x="0" y="52">IMPACT</tspan>
      </text>
      <text font-family="'Playfair Display', Georgia, serif" font-size="52" font-weight="600" letter-spacing="4">
        <tspan x="0" y="108">TENNIS</tspan>
      </text>
    </g>
    <text x="150" y="126" font-family="Poppins, 'Helvetica Neue', Arial, sans-serif" font-size="22" letter-spacing="10" fill="#b27f2f">
      ACADÉMIE
    </text>
  </g>
</svg>
