<svg xmlns="http://www.w3.org/2000/svg" viewBox="0 0 800 600" role="img" aria-labelledby="title desc">
  <title id="title">Illustration équipe Tennis Impact</title>
  <desc id="desc">Joueurs et coachs stylisés célébrant sur fond nocturne.</desc>
  <defs>
    <linearGradient id="bg" x1="0%" y1="0%" x2="100%" y2="100%">
      <stop offset="0%" stop-color="#071022"/>
      <stop offset="100%" stop-color="#102b4f"/>
    </linearGradient>
  </defs>
  <rect width="800" height="600" rx="36" fill="url(#bg)"/>
  <g opacity="0.25" fill="#0d2646">
    <circle cx="160" cy="140" r="90"/>
    <circle cx="640" cy="180" r="120"/>
    <circle cx="580" cy="440" r="100"/>
  </g>
  <g transform="translate(120 160)">
    <path d="M260 260c-36-48-52-106-46-172 4-36 18-68 40-96l70 28c-14 20-22 42-24 66-4 42 8 84 36 120l-76 54z" fill="#f7d67f"/>
    <path d="M120 220c-24-54-24-114-4-170 20-60 66-106 126-126l26 68c-34 12-60 40-72 74-10 32-10 68 0 98l-76 56z" fill="#5ad0ff"/>
    <path d="M360 280c40-46 58-108 52-172-4-38-18-74-42-104l-70 34c14 18 22 40 26 64 6 44-6 88-32 122l66 56z" fill="#50c878"/>
    <g transform="translate(120 120)" fill="#ffe8b6">
      <circle cx="0" cy="0" r="24"/>
      <circle cx="120" cy="-40" r="26"/>
      <circle cx="240" cy="10" r="24"/>
    </g>
    <g opacity="0.9">
      <path d="M60 260c80 30 200 30 280 0" fill="none" stroke="#13375f" stroke-width="12" stroke-linecap="round"/>
      <path d="M40 320c100 40 260 40 360 0" fill="none" stroke="#0d2646" stroke-width="10" stroke-linecap="round"/>
    </g>
    <g opacity="0.6" fill="#f7d67f">
      <circle cx="80" cy="60" r="10"/>
      <circle cx="340" cy="80" r="12"/>
      <circle cx="420" cy="160" r="8"/>
      <circle cx="220" cy="20" r="8"/>
    </g>
  </g>
</svg>
