<svg xmlns="http://www.w3.org/2000/svg" viewBox="0 0 520 400" role="img" aria-labelledby="title desc">
  <title id="title">Illustration pack 10 heures</title>
  <desc id="desc">Tablette de suivi avec graphiques de progression et deux balles de tennis.</desc>
  <defs>
    <linearGradient id="bg" x1="0%" y1="0%" x2="100%" y2="100%">
      <stop offset="0%" stop-color="#071325"/>
      <stop offset="100%" stop-color="#10335a"/>
    </linearGradient>
  </defs>
  <rect width="520" height="400" rx="28" fill="url(#bg)"/>
  <g opacity="0.22" fill="#0d2646">
    <circle cx="140" cy="120" r="90"/>
    <circle cx="380" cy="100" r="80"/>
    <circle cx="360" cy="300" r="90"/>
  </g>
  <g transform="translate(90 80)">
    <rect x="0" y="20" width="260" height="220" rx="26" fill="#0d2444" stroke="#1a3f6b" stroke-width="10"/>
    <rect x="24" y="44" width="212" height="172" rx="18" fill="#122f56"/>
    <path d="M48 160l52-60 36 28 68-88" fill="none" stroke="#5ad0ff" stroke-width="10" stroke-linecap="round" stroke-linejoin="round"/>
    <path d="M48 200h180" stroke="#0d2038" stroke-width="12" stroke-linecap="round"/>
    <path d="M48 80h120" stroke="#f7d67f" stroke-width="8" stroke-linecap="round"/>
    <path d="M48 110h160" stroke="#f28c52" stroke-width="8" stroke-linecap="round"/>
    <g transform="translate(200 140)">
      <rect x="0" y="0" width="44" height="72" rx="12" fill="#5ad0ff"/>
      <rect x="-60" y="10" width="44" height="62" rx="12" fill="#f7d67f"/>
      <rect x="-120" y="24" width="44" height="48" rx="12" fill="#50c878"/>
    </g>
    <g transform="translate(280 10)">
      <circle cx="80" cy="120" r="46" fill="#f7d67f" stroke="#0d2444" stroke-width="10"/>
      <path d="M54 104c34-14 62-12 94 10M54 136c34 14 62 12 94-10" fill="none" stroke="#0d2444" stroke-width="8" stroke-linecap="round"/>
    </g>
    <g transform="translate(260 180)">
      <circle cx="60" cy="60" r="38" fill="#5ad0ff" stroke="#0d2444" stroke-width="10"/>
      <path d="M36 48c26-12 46-8 70 8M36 60c26 12 46 8 70-8" fill="none" stroke="#0d2444" stroke-width="8" stroke-linecap="round"/>
    </g>
  </g>
</svg>
