<svg xmlns="http://www.w3.org/2000/svg" viewBox="0 0 640 480" role="img" aria-labelledby="title desc">
  <title id="title">Illustration tournée de tournois</title>
  <desc id="desc">Trophée doré, balle de tennis et carte de France stylisée.</desc>
  <defs>
    <linearGradient id="bg" x1="0%" y1="0%" x2="100%" y2="100%">
      <stop offset="0%" stop-color="#0a1c36"/>
      <stop offset="100%" stop-color="#112d4e"/>
    </linearGradient>
    <linearGradient id="trophy" x1="0" y1="0" x2="0" y2="1">
      <stop offset="0" stop-color="#ffe38f"/>
      <stop offset="1" stop-color="#d89c2b"/>
    </linearGradient>
  </defs>
  <rect width="640" height="480" rx="36" fill="url(#bg)"/>
  <g opacity="0.25" fill="#0f2748">
    <circle cx="180" cy="120" r="70"/>
    <circle cx="500" cy="140" r="90"/>
    <circle cx="460" cy="360" r="80"/>
  </g>
  <g transform="translate(120 80)">
    <path d="M140 340c-50-40-90-120-80-196 12-92 86-162 178-172 84-10 158 44 186 132 22 70 4 162-60 220" fill="#0d2648" opacity="0.82"/>
    <path d="M140 340c-50-40-90-120-80-196 12-92 86-162 178-172 84-10 158 44 186 132 22 70 4 162-60 220" fill="none" stroke="#19406d" stroke-width="10" stroke-dasharray="14 12" opacity="0.7"/>
    <circle cx="260" cy="160" r="26" fill="#f7d67f" stroke="#0d2648" stroke-width="6"/>
    <path d="M110 340c30 30 80 40 120 40s90-10 120-40" fill="none" stroke="#133963" stroke-width="10" stroke-linecap="round"/>
    <g transform="translate(220 120)">
      <path d="M100 0l24 60c6 18-6 34-24 34H64c-18 0-30-16-24-34L64 0z" fill="url(#trophy)"/>
      <path d="M80 94h32v26c0 10-8 18-18 18h-14c-10 0-18-8-18-18V94z" fill="#f0bc3d"/>
      <path d="M60 138h72v24c0 10-8 18-18 18H78c-10 0-18-8-18-18v-24z" fill="#d89c2b"/>
      <path d="M52 168h88c10 0 18 8 18 18v10H34v-10c0-10 8-18 18-18z" fill="#b37a13"/>
      <circle cx="36" cy="60" r="30" fill="#f7d67f" stroke="#0d2648" stroke-width="6" transform="translate(-90 70)"/>
      <path d="M-84 130c40 12 66 8 96-4" fill="none" stroke="#0d2648" stroke-width="8" stroke-linecap="round" transform="translate(-90 70)"/>
    </g>
  </g>
</svg>
